<svg width="12" height="10" viewBox="0 0 12 10" fill="none" xmlns="http://www.w3.org/2000/svg">
<path fill-rule="evenodd" clip-rule="evenodd" d="M8.99256 0.252563H2.40239C1.18918 0.252563 0.205673 1.23607 0.205673 2.44928V7.39191C0.205673 8.60512 1.18918 9.58863 2.40239 9.58863H8.99256C10.2058 9.58863 11.1893 8.60512 11.1893 7.39191V2.44928C11.1893 1.23607 10.2058 0.252563 8.99256 0.252563ZM2.403 1.12605H8.99316C9.57844 1.12717 10.0929 1.51412 10.2563 2.07614L6.11546 5.14605C6.00197 5.25701 5.8481 5.31682 5.68947 5.31164C5.53084 5.30645 5.38121 5.23673 5.27521 5.1186L1.15087 2.08163C1.31109 1.52131 1.82026 1.13273 2.403 1.12605ZM1.07915 7.39212C1.07915 8.12308 1.67172 8.71564 2.40268 8.71564H8.99284C9.72166 8.71262 10.3109 8.12094 10.3109 7.39212V2.9822L6.57645 5.7281C6.33778 5.95029 6.02385 6.0739 5.69776 6.07408C5.35878 6.06868 5.03388 5.93755 4.78612 5.70613L1.07915 2.96023V7.39212Z" fill="#5B5B5B"/>
</svg>
